# xmcd
#
# Track frame offsets: 
#        150
#        13247
#        29398
#        41197
#        56063
#        72737
#        88335
#        102921
#        117597
#        133870
#        152591
#        164546
#        182424
#        197636
#
# Disc length: 2847 seconds
#
# Revision: 2
# Processed by: cddbd v1.5.2PL0 Copyright (c) Steve Scherf et al.
# Submitted via: ExactAudioCopy v1.0b4
#
DISCID=d00b1d0e
DTITLE=Mud Morganfield and Kim Wilson - For Pops (A Tribute To Muddy Wat
DTITLE=ers)
DYEAR=2014
DGENRE=Blues
TTITLE0=Gone To Main Street
TTITLE1=Just To Be With You
TTITLE2=I Don't Know Why
TTITLE3=I Want You To Love Me
TTITLE4=Still A Fool
TTITLE5=My Dog Can't Bark
TTITLE6=She's Got It
TTITLE7=I Love The Life I Live, I Live The Life I Love
TTITLE8=Blow Wind Blow
TTITLE9=Nineteen Years Old
TTITLE10=I Want To Be Loved
TTITLE11=Trouble No More
TTITLE12=I Just Want To Make Love To You
TTITLE13=She Moves Me
EXTD=
EXTT0=
EXTT1=
EXTT2=
EXTT3=
EXTT4=
EXTT5=
EXTT6=
EXTT7=
EXTT8=
EXTT9=
EXTT10=
EXTT11=
EXTT12=
EXTT13=
PLAYORDER=
